<svg width="393" height="434" viewBox="0 0 393 434" fill="none" xmlns="http://www.w3.org/2000/svg">
<rect width="393" height="434" fill="#1E1E1E"/>
<g id="iPhone 16 - 2">
<rect width="393" height="7835" transform="translate(0 -1613)" fill="#A3A3A3"/>
<g id="Frame 34">
<g id="Frame 5" clip-path="url(#clip0_0_1)">
<rect width="393" height="572" transform="translate(0 -94)" fill="white"/>
<g id="Group 2">
<g id="Polygon 3">
<path d="M427.093 361.701L468.835 434H385.351L427.093 361.701Z" fill="url(#paint0_linear_0_1)" fill-opacity="0.1"/>
<path d="M467.969 433.5H386.217L427.093 362.701L467.969 433.5Z" stroke="url(#paint1_linear_0_1)" stroke-opacity="0.1"/>
</g>
<g id="Polygon 22">
<path d="M427.093 217L468.835 289.299H385.351L427.093 217Z" fill="url(#paint2_linear_0_1)" fill-opacity="0.1"/>
<path d="M467.969 288.799H386.217L427.093 218L467.969 288.799Z" stroke="url(#paint3_linear_0_1)" stroke-opacity="0.1"/>
</g>
<g id="Polygon 40">
<path d="M427.093 72.4027L468.835 144.701H385.351L427.093 72.4027Z" fill="url(#paint4_linear_0_1)" fill-opacity="0.1"/>
<path d="M467.969 144.202H386.217L427.093 73.4027L467.969 144.202Z" stroke="url(#paint5_linear_0_1)" stroke-opacity="0.1"/>
</g>
<g id="Polygon 4">
<path d="M343.402 361.701L385.144 434H301.66L343.402 361.701Z" fill="url(#paint6_linear_0_1)" fill-opacity="0.1"/>
<path d="M383.411 433H303.393L343.402 363.7L383.411 433Z" stroke="url(#paint7_linear_0_1)" stroke-opacity="0.1" stroke-width="2"/>
</g>
<g id="Polygon 24">
<path d="M343.402 217L385.144 289.299H301.66L343.402 217Z" fill="url(#paint8_linear_0_1)" fill-opacity="0.1"/>
<path d="M383.411 288.299H303.393L343.402 218.999L383.411 288.299Z" stroke="url(#paint9_linear_0_1)" stroke-opacity="0.1" stroke-width="2"/>
</g>
<g id="Polygon 42">
<path d="M343.402 72.4027L385.144 144.701H301.66L343.402 72.4027Z" fill="url(#paint10_linear_0_1)" fill-opacity="0.1"/>
<path d="M383.411 143.702H303.393L343.401 74.4017L383.411 143.702Z" stroke="url(#paint11_linear_0_1)" stroke-opacity="0.1" stroke-width="2"/>
</g>
<g id="Polygon 13">
<path d="M385.363 289.299L427.104 361.597H343.621L385.363 289.299Z" fill="url(#paint12_linear_0_1)" fill-opacity="0.1"/>
<path d="M425.372 360.597H345.353L385.362 291.298L425.372 360.597Z" stroke="url(#paint13_linear_0_1)" stroke-opacity="0.1" stroke-width="2"/>
</g>
<g id="Polygon 25">
<path d="M385.363 144.597L427.104 216.896H343.621L385.363 144.597Z" fill="url(#paint14_linear_0_1)" fill-opacity="0.1"/>
<path d="M425.372 215.896H345.353L385.362 146.596L425.372 215.896Z" stroke="url(#paint15_linear_0_1)" stroke-opacity="0.1" stroke-width="2"/>
</g>
<g id="Polygon 43">
<path d="M385.363 0.000126302L427.104 72.2988H343.621L385.363 0.000126302Z" fill="url(#paint16_linear_0_1)" fill-opacity="0.1"/>
<path d="M425.372 71.299H345.353L385.362 1.99915L425.372 71.299Z" stroke="url(#paint17_linear_0_1)" stroke-opacity="0.1" stroke-width="2"/>
</g>
<g id="Polygon 5">
<path d="M259.711 361.701L301.452 434H217.969L259.711 361.701Z" fill="url(#paint18_linear_0_1)" fill-opacity="0.1"/>
<path d="M299.72 433H219.701L259.71 363.7L299.72 433Z" stroke="url(#paint19_linear_0_1)" stroke-opacity="0.1" stroke-width="2"/>
</g>
<g id="Polygon 26">
<path d="M259.711 217L301.452 289.299H217.969L259.711 217Z" fill="url(#paint20_linear_0_1)" fill-opacity="0.1"/>
<path d="M299.72 288.299H219.701L259.71 218.999L299.72 288.299Z" stroke="url(#paint21_linear_0_1)" stroke-opacity="0.1" stroke-width="2"/>
</g>
<g id="Polygon 44">
<path d="M259.711 72.4027L301.452 144.701H217.969L259.711 72.4027Z" fill="url(#paint22_linear_0_1)" fill-opacity="0.1"/>
<path d="M299.72 143.702H219.701L259.71 74.4017L299.72 143.702Z" stroke="url(#paint23_linear_0_1)" stroke-opacity="0.1" stroke-width="2"/>
</g>
<path id="Polygon 14" d="M301.672 289.299L343.413 361.597H259.93L301.672 289.299Z" fill="url(#paint24_linear_0_1)" fill-opacity="0.1"/>
<path id="Polygon 27" d="M301.672 144.597L343.413 216.896H259.93L301.672 144.597Z" fill="url(#paint25_linear_0_1)" fill-opacity="0.1"/>
<path id="Polygon 45" d="M301.672 0.000126302L343.413 72.2988H259.93L301.672 0.000126302Z" fill="url(#paint26_linear_0_1)" fill-opacity="0.1"/>
<g id="Polygon 6">
<path d="M176.02 361.701L217.761 434H134.278L176.02 361.701Z" fill="url(#paint27_linear_0_1)" fill-opacity="0.1"/>
<path d="M216.895 433.5H135.143L176.019 362.701L216.895 433.5Z" stroke="url(#paint28_linear_0_1)" stroke-opacity="0.1"/>
</g>
<path id="Polygon 28" d="M176.02 217L217.761 289.299H134.278L176.02 217Z" fill="url(#paint29_linear_0_1)" fill-opacity="0.1"/>
<path id="Polygon 46" d="M176.02 72.4027L217.761 144.701H134.278L176.02 72.4027Z" fill="url(#paint30_linear_0_1)" fill-opacity="0.1"/>
<g id="Polygon 15">
<path d="M217.98 289.299L259.722 361.597H176.239L217.98 289.299Z" fill="url(#paint31_linear_0_1)" fill-opacity="0.1"/>
<path d="M257.99 360.597H177.971L217.98 291.298L257.99 360.597Z" stroke="url(#paint32_linear_0_1)" stroke-opacity="0.1" stroke-width="2"/>
</g>
<g id="Polygon 29">
<path d="M217.98 144.597L259.722 216.896H176.239L217.98 144.597Z" fill="url(#paint33_linear_0_1)" fill-opacity="0.1"/>
<path d="M257.99 215.896H177.971L217.98 146.596L257.99 215.896Z" stroke="url(#paint34_linear_0_1)" stroke-opacity="0.1" stroke-width="2"/>
</g>
<g id="Polygon 47">
<path d="M217.98 0.000126302L259.722 72.2988H176.239L217.98 0.000126302Z" fill="url(#paint35_linear_0_1)" fill-opacity="0.1"/>
<path d="M257.99 71.299H177.971L217.98 1.99915L257.99 71.299Z" stroke="url(#paint36_linear_0_1)" stroke-opacity="0.1" stroke-width="2"/>
</g>
<g id="Polygon 7">
<path d="M92.3286 361.701L134.07 434H50.5869L92.3286 361.701Z" fill="url(#paint37_linear_0_1)" fill-opacity="0.1"/>
<path d="M133.204 433.5H51.4521L92.3281 362.701L133.204 433.5Z" stroke="url(#paint38_linear_0_1)" stroke-opacity="0.1"/>
</g>
<path id="Polygon 30" d="M92.3286 217L134.07 289.299H50.5869L92.3286 217Z" fill="url(#paint39_linear_0_1)" fill-opacity="0.1"/>
<path id="Polygon 48" d="M92.3285 72.4027L134.07 144.701H50.5869L92.3285 72.4027Z" fill="url(#paint40_linear_0_1)" fill-opacity="0.1"/>
<g id="Polygon 16">
<path d="M134.289 289.299L176.031 361.597H92.5475L134.289 289.299Z" fill="url(#paint41_linear_0_1)" fill-opacity="0.1"/>
<path d="M174.298 360.597H94.2799L134.289 291.298L174.298 360.597Z" stroke="url(#paint42_linear_0_1)" stroke-opacity="0.1" stroke-width="2"/>
</g>
<g id="Polygon 31">
<path d="M134.289 144.597L176.031 216.896H92.5475L134.289 144.597Z" fill="url(#paint43_linear_0_1)" fill-opacity="0.1"/>
<path d="M174.298 215.896H94.2799L134.289 146.596L174.298 215.896Z" stroke="url(#paint44_linear_0_1)" stroke-opacity="0.1" stroke-width="2"/>
</g>
<g id="Polygon 49">
<path d="M134.289 0.000126302L176.031 72.2988H92.5475L134.289 0.000126302Z" fill="url(#paint45_linear_0_1)" fill-opacity="0.1"/>
<path d="M174.298 71.299H94.2799L134.289 1.99915L174.298 71.299Z" stroke="url(#paint46_linear_0_1)" stroke-opacity="0.1" stroke-width="2"/>
</g>
<g id="Polygon 8">
<path d="M8.6374 361.701L50.379 434H-33.1042L8.6374 361.701Z" fill="url(#paint47_linear_0_1)" fill-opacity="0.1"/>
<path d="M48.6467 433H-31.3718L8.63696 363.7L48.6467 433Z" stroke="url(#paint48_linear_0_1)" stroke-opacity="0.1" stroke-width="2"/>
</g>
<g id="Polygon 32">
<path d="M8.6374 217L50.379 289.299H-33.1042L8.6374 217Z" fill="url(#paint49_linear_0_1)" fill-opacity="0.1"/>
<path d="M48.6467 288.299H-31.3718L8.63696 218.999L48.6467 288.299Z" stroke="url(#paint50_linear_0_1)" stroke-opacity="0.1" stroke-width="2"/>
</g>
<g id="Polygon 50">
<path d="M8.6374 72.4027L50.379 144.701H-33.1042L8.6374 72.4027Z" fill="url(#paint51_linear_0_1)" fill-opacity="0.1"/>
<path d="M48.6467 143.702H-31.3718L8.63696 74.4017L48.6467 143.702Z" stroke="url(#paint52_linear_0_1)" stroke-opacity="0.1" stroke-width="2"/>
</g>
<g id="Polygon 17">
<path d="M50.598 289.299L92.3396 361.597H8.85632L50.598 289.299Z" fill="url(#paint53_linear_0_1)" fill-opacity="0.1"/>
<path d="M90.6073 360.597H10.5887L50.5975 291.298L90.6073 360.597Z" stroke="url(#paint54_linear_0_1)" stroke-opacity="0.1" stroke-width="2"/>
</g>
<g id="Polygon 33">
<path d="M50.598 144.597L92.3396 216.896H8.85632L50.598 144.597Z" fill="url(#paint55_linear_0_1)" fill-opacity="0.1"/>
<path d="M90.6073 215.896H10.5887L50.5975 146.596L90.6073 215.896Z" stroke="url(#paint56_linear_0_1)" stroke-opacity="0.1" stroke-width="2"/>
</g>
<g id="Polygon 51">
<path d="M50.598 0.000126302L92.3396 72.2988H8.85632L50.598 0.000126302Z" fill="url(#paint57_linear_0_1)" fill-opacity="0.1"/>
<path d="M90.6073 71.299H10.5887L50.5975 1.99915L90.6073 71.299Z" stroke="url(#paint58_linear_0_1)" stroke-opacity="0.1" stroke-width="2"/>
</g>
<path id="Polygon 18" d="M-33.0931 289.299L8.64851 361.597H-74.8348L-33.0931 289.299Z" fill="url(#paint59_linear_0_1)" fill-opacity="0.1"/>
<path id="Polygon 35" d="M-33.0931 144.597L8.64851 216.896H-74.8348L-33.0931 144.597Z" fill="url(#paint60_linear_0_1)" fill-opacity="0.1"/>
<path id="Polygon 53" d="M-33.0932 0.000126302L8.64845 72.2988H-74.8348L-33.0932 0.000126302Z" fill="url(#paint61_linear_0_1)" fill-opacity="0.1"/>
</g>
</g>
</g>
</g>
<defs>
<linearGradient id="paint0_linear_0_1" x1="427.093" y1="361.701" x2="427.093" y2="434" gradientUnits="userSpaceOnUse">
<stop stop-color="#4322D5"/>
<stop offset="1" stop-color="white" stop-opacity="0"/>
</linearGradient>
<linearGradient id="paint1_linear_0_1" x1="427.093" y1="361.701" x2="427.093" y2="434" gradientUnits="userSpaceOnUse">
<stop stop-color="#4322D5"/>
<stop offset="1" stop-color="white" stop-opacity="0"/>
</linearGradient>
<linearGradient id="paint2_linear_0_1" x1="427.093" y1="217" x2="427.093" y2="289.299" gradientUnits="userSpaceOnUse">
<stop stop-color="#4322D5"/>
<stop offset="1" stop-color="white" stop-opacity="0"/>
</linearGradient>
<linearGradient id="paint3_linear_0_1" x1="427.093" y1="217" x2="427.093" y2="289.299" gradientUnits="userSpaceOnUse">
<stop stop-color="#4322D5"/>
<stop offset="1" stop-color="white" stop-opacity="0"/>
</linearGradient>
<linearGradient id="paint4_linear_0_1" x1="427.093" y1="72.4027" x2="427.093" y2="144.701" gradientUnits="userSpaceOnUse">
<stop stop-color="#4322D5"/>
<stop offset="1" stop-color="white" stop-opacity="0"/>
</linearGradient>
<linearGradient id="paint5_linear_0_1" x1="427.093" y1="72.4027" x2="427.093" y2="144.701" gradientUnits="userSpaceOnUse">
<stop stop-color="#4322D5"/>
<stop offset="1" stop-color="white" stop-opacity="0"/>
</linearGradient>
<linearGradient id="paint6_linear_0_1" x1="343.402" y1="361.701" x2="343.402" y2="434" gradientUnits="userSpaceOnUse">
<stop stop-color="#4322D5"/>
<stop offset="1" stop-color="white" stop-opacity="0"/>
</linearGradient>
<linearGradient id="paint7_linear_0_1" x1="343.402" y1="361.701" x2="343.402" y2="434" gradientUnits="userSpaceOnUse">
<stop stop-color="#4322D5"/>
<stop offset="1" stop-color="white" stop-opacity="0"/>
</linearGradient>
<linearGradient id="paint8_linear_0_1" x1="343.402" y1="217" x2="343.402" y2="289.299" gradientUnits="userSpaceOnUse">
<stop stop-color="#4322D5"/>
<stop offset="1" stop-color="white" stop-opacity="0"/>
</linearGradient>
<linearGradient id="paint9_linear_0_1" x1="343.402" y1="217" x2="343.402" y2="289.299" gradientUnits="userSpaceOnUse">
<stop stop-color="#4322D5"/>
<stop offset="1" stop-color="white" stop-opacity="0"/>
</linearGradient>
<linearGradient id="paint10_linear_0_1" x1="343.402" y1="72.4027" x2="343.402" y2="144.701" gradientUnits="userSpaceOnUse">
<stop stop-color="#4322D5"/>
<stop offset="1" stop-color="white" stop-opacity="0"/>
</linearGradient>
<linearGradient id="paint11_linear_0_1" x1="343.402" y1="72.4027" x2="343.402" y2="144.701" gradientUnits="userSpaceOnUse">
<stop stop-color="#4322D5"/>
<stop offset="1" stop-color="white" stop-opacity="0"/>
</linearGradient>
<linearGradient id="paint12_linear_0_1" x1="385.363" y1="289.299" x2="385.363" y2="361.597" gradientUnits="userSpaceOnUse">
<stop stop-color="#4322D5"/>
<stop offset="1" stop-color="white" stop-opacity="0"/>
</linearGradient>
<linearGradient id="paint13_linear_0_1" x1="385.363" y1="289.299" x2="385.363" y2="361.597" gradientUnits="userSpaceOnUse">
<stop stop-color="#4322D5"/>
<stop offset="1" stop-color="white" stop-opacity="0"/>
</linearGradient>
<linearGradient id="paint14_linear_0_1" x1="385.363" y1="144.597" x2="385.363" y2="216.896" gradientUnits="userSpaceOnUse">
<stop stop-color="#4322D5"/>
<stop offset="1" stop-color="white" stop-opacity="0"/>
</linearGradient>
<linearGradient id="paint15_linear_0_1" x1="385.363" y1="144.597" x2="385.363" y2="216.896" gradientUnits="userSpaceOnUse">
<stop stop-color="#4322D5"/>
<stop offset="1" stop-color="white" stop-opacity="0"/>
</linearGradient>
<linearGradient id="paint16_linear_0_1" x1="385.363" y1="0.000126302" x2="385.363" y2="72.2988" gradientUnits="userSpaceOnUse">
<stop stop-color="#4322D5"/>
<stop offset="1" stop-color="white" stop-opacity="0"/>
</linearGradient>
<linearGradient id="paint17_linear_0_1" x1="385.363" y1="0.000126302" x2="385.363" y2="72.2988" gradientUnits="userSpaceOnUse">
<stop stop-color="#4322D5"/>
<stop offset="1" stop-color="white" stop-opacity="0"/>
</linearGradient>
<linearGradient id="paint18_linear_0_1" x1="259.711" y1="361.701" x2="259.711" y2="434" gradientUnits="userSpaceOnUse">
<stop stop-color="#4322D5"/>
<stop offset="1" stop-color="white" stop-opacity="0"/>
</linearGradient>
<linearGradient id="paint19_linear_0_1" x1="259.711" y1="361.701" x2="259.711" y2="434" gradientUnits="userSpaceOnUse">
<stop stop-color="#4322D5"/>
<stop offset="1" stop-color="white" stop-opacity="0"/>
</linearGradient>
<linearGradient id="paint20_linear_0_1" x1="259.711" y1="217" x2="259.711" y2="289.299" gradientUnits="userSpaceOnUse">
<stop stop-color="#4322D5"/>
<stop offset="1" stop-color="white" stop-opacity="0"/>
</linearGradient>
<linearGradient id="paint21_linear_0_1" x1="259.711" y1="217" x2="259.711" y2="289.299" gradientUnits="userSpaceOnUse">
<stop stop-color="#4322D5"/>
<stop offset="1" stop-color="white" stop-opacity="0"/>
</linearGradient>
<linearGradient id="paint22_linear_0_1" x1="259.711" y1="72.4027" x2="259.711" y2="144.701" gradientUnits="userSpaceOnUse">
<stop stop-color="#4322D5"/>
<stop offset="1" stop-color="white" stop-opacity="0"/>
</linearGradient>
<linearGradient id="paint23_linear_0_1" x1="259.711" y1="72.4027" x2="259.711" y2="144.701" gradientUnits="userSpaceOnUse">
<stop stop-color="#4322D5"/>
<stop offset="1" stop-color="white" stop-opacity="0"/>
</linearGradient>
<linearGradient id="paint24_linear_0_1" x1="301.672" y1="289.299" x2="301.672" y2="361.597" gradientUnits="userSpaceOnUse">
<stop stop-color="#4322D5"/>
<stop offset="1" stop-color="white" stop-opacity="0"/>
</linearGradient>
<linearGradient id="paint25_linear_0_1" x1="301.672" y1="144.597" x2="301.672" y2="216.896" gradientUnits="userSpaceOnUse">
<stop stop-color="#4322D5"/>
<stop offset="1" stop-color="white" stop-opacity="0"/>
</linearGradient>
<linearGradient id="paint26_linear_0_1" x1="301.672" y1="0.000126302" x2="301.672" y2="72.2988" gradientUnits="userSpaceOnUse">
<stop stop-color="#4322D5"/>
<stop offset="1" stop-color="white" stop-opacity="0"/>
</linearGradient>
<linearGradient id="paint27_linear_0_1" x1="176.02" y1="361.701" x2="176.02" y2="434" gradientUnits="userSpaceOnUse">
<stop stop-color="#4322D5"/>
<stop offset="1" stop-color="white" stop-opacity="0"/>
</linearGradient>
<linearGradient id="paint28_linear_0_1" x1="176.02" y1="361.701" x2="176.02" y2="434" gradientUnits="userSpaceOnUse">
<stop stop-color="#4322D5"/>
<stop offset="1" stop-color="white" stop-opacity="0"/>
</linearGradient>
<linearGradient id="paint29_linear_0_1" x1="176.02" y1="217" x2="176.02" y2="289.299" gradientUnits="userSpaceOnUse">
<stop stop-color="#4322D5"/>
<stop offset="1" stop-color="white" stop-opacity="0"/>
</linearGradient>
<linearGradient id="paint30_linear_0_1" x1="176.02" y1="72.4027" x2="176.02" y2="144.701" gradientUnits="userSpaceOnUse">
<stop stop-color="#4322D5"/>
<stop offset="1" stop-color="white" stop-opacity="0"/>
</linearGradient>
<linearGradient id="paint31_linear_0_1" x1="217.98" y1="289.299" x2="217.98" y2="361.597" gradientUnits="userSpaceOnUse">
<stop stop-color="#4322D5"/>
<stop offset="1" stop-color="white" stop-opacity="0"/>
</linearGradient>
<linearGradient id="paint32_linear_0_1" x1="217.98" y1="289.299" x2="217.98" y2="361.597" gradientUnits="userSpaceOnUse">
<stop stop-color="#4322D5"/>
<stop offset="1" stop-color="white" stop-opacity="0"/>
</linearGradient>
<linearGradient id="paint33_linear_0_1" x1="217.98" y1="144.597" x2="217.98" y2="216.896" gradientUnits="userSpaceOnUse">
<stop stop-color="#4322D5"/>
<stop offset="1" stop-color="white" stop-opacity="0"/>
</linearGradient>
<linearGradient id="paint34_linear_0_1" x1="217.98" y1="144.597" x2="217.98" y2="216.896" gradientUnits="userSpaceOnUse">
<stop stop-color="#4322D5"/>
<stop offset="1" stop-color="white" stop-opacity="0"/>
</linearGradient>
<linearGradient id="paint35_linear_0_1" x1="217.98" y1="0.000126302" x2="217.98" y2="72.2988" gradientUnits="userSpaceOnUse">
<stop stop-color="#4322D5"/>
<stop offset="1" stop-color="white" stop-opacity="0"/>
</linearGradient>
<linearGradient id="paint36_linear_0_1" x1="217.98" y1="0.000126302" x2="217.98" y2="72.2988" gradientUnits="userSpaceOnUse">
<stop stop-color="#4322D5"/>
<stop offset="1" stop-color="white" stop-opacity="0"/>
</linearGradient>
<linearGradient id="paint37_linear_0_1" x1="92.3286" y1="361.701" x2="92.3286" y2="434" gradientUnits="userSpaceOnUse">
<stop stop-color="#4322D5"/>
<stop offset="1" stop-color="white" stop-opacity="0"/>
</linearGradient>
<linearGradient id="paint38_linear_0_1" x1="92.3286" y1="361.701" x2="92.3286" y2="434" gradientUnits="userSpaceOnUse">
<stop stop-color="#4322D5"/>
<stop offset="1" stop-color="white" stop-opacity="0"/>
</linearGradient>
<linearGradient id="paint39_linear_0_1" x1="92.3286" y1="217" x2="92.3286" y2="289.299" gradientUnits="userSpaceOnUse">
<stop stop-color="#4322D5"/>
<stop offset="1" stop-color="white" stop-opacity="0"/>
</linearGradient>
<linearGradient id="paint40_linear_0_1" x1="92.3285" y1="72.4027" x2="92.3285" y2="144.701" gradientUnits="userSpaceOnUse">
<stop stop-color="#4322D5"/>
<stop offset="1" stop-color="white" stop-opacity="0"/>
</linearGradient>
<linearGradient id="paint41_linear_0_1" x1="134.289" y1="289.299" x2="134.289" y2="361.597" gradientUnits="userSpaceOnUse">
<stop stop-color="#4322D5"/>
<stop offset="1" stop-color="white" stop-opacity="0"/>
</linearGradient>
<linearGradient id="paint42_linear_0_1" x1="134.289" y1="289.299" x2="134.289" y2="361.597" gradientUnits="userSpaceOnUse">
<stop stop-color="#4322D5"/>
<stop offset="1" stop-color="white" stop-opacity="0"/>
</linearGradient>
<linearGradient id="paint43_linear_0_1" x1="134.289" y1="144.597" x2="134.289" y2="216.896" gradientUnits="userSpaceOnUse">
<stop stop-color="#4322D5"/>
<stop offset="1" stop-color="white" stop-opacity="0"/>
</linearGradient>
<linearGradient id="paint44_linear_0_1" x1="134.289" y1="144.597" x2="134.289" y2="216.896" gradientUnits="userSpaceOnUse">
<stop stop-color="#4322D5"/>
<stop offset="1" stop-color="white" stop-opacity="0"/>
</linearGradient>
<linearGradient id="paint45_linear_0_1" x1="134.289" y1="0.000126302" x2="134.289" y2="72.2988" gradientUnits="userSpaceOnUse">
<stop stop-color="#4322D5"/>
<stop offset="1" stop-color="white" stop-opacity="0"/>
</linearGradient>
<linearGradient id="paint46_linear_0_1" x1="134.289" y1="0.000126302" x2="134.289" y2="72.2988" gradientUnits="userSpaceOnUse">
<stop stop-color="#4322D5"/>
<stop offset="1" stop-color="white" stop-opacity="0"/>
</linearGradient>
<linearGradient id="paint47_linear_0_1" x1="8.63739" y1="361.701" x2="8.63739" y2="434" gradientUnits="userSpaceOnUse">
<stop stop-color="#4322D5"/>
<stop offset="1" stop-color="white" stop-opacity="0"/>
</linearGradient>
<linearGradient id="paint48_linear_0_1" x1="8.63739" y1="361.701" x2="8.63739" y2="434" gradientUnits="userSpaceOnUse">
<stop stop-color="#4322D5"/>
<stop offset="1" stop-color="white" stop-opacity="0"/>
</linearGradient>
<linearGradient id="paint49_linear_0_1" x1="8.63739" y1="217" x2="8.63739" y2="289.299" gradientUnits="userSpaceOnUse">
<stop stop-color="#4322D5"/>
<stop offset="1" stop-color="white" stop-opacity="0"/>
</linearGradient>
<linearGradient id="paint50_linear_0_1" x1="8.63739" y1="217" x2="8.63739" y2="289.299" gradientUnits="userSpaceOnUse">
<stop stop-color="#4322D5"/>
<stop offset="1" stop-color="white" stop-opacity="0"/>
</linearGradient>
<linearGradient id="paint51_linear_0_1" x1="8.63739" y1="72.4027" x2="8.63739" y2="144.701" gradientUnits="userSpaceOnUse">
<stop stop-color="#4322D5"/>
<stop offset="1" stop-color="white" stop-opacity="0"/>
</linearGradient>
<linearGradient id="paint52_linear_0_1" x1="8.63739" y1="72.4027" x2="8.63739" y2="144.701" gradientUnits="userSpaceOnUse">
<stop stop-color="#4322D5"/>
<stop offset="1" stop-color="white" stop-opacity="0"/>
</linearGradient>
<linearGradient id="paint53_linear_0_1" x1="50.598" y1="289.299" x2="50.598" y2="361.597" gradientUnits="userSpaceOnUse">
<stop stop-color="#4322D5"/>
<stop offset="1" stop-color="white" stop-opacity="0"/>
</linearGradient>
<linearGradient id="paint54_linear_0_1" x1="50.598" y1="289.299" x2="50.598" y2="361.597" gradientUnits="userSpaceOnUse">
<stop stop-color="#4322D5"/>
<stop offset="1" stop-color="white" stop-opacity="0"/>
</linearGradient>
<linearGradient id="paint55_linear_0_1" x1="50.598" y1="144.597" x2="50.598" y2="216.896" gradientUnits="userSpaceOnUse">
<stop stop-color="#4322D5"/>
<stop offset="1" stop-color="white" stop-opacity="0"/>
</linearGradient>
<linearGradient id="paint56_linear_0_1" x1="50.598" y1="144.597" x2="50.598" y2="216.896" gradientUnits="userSpaceOnUse">
<stop stop-color="#4322D5"/>
<stop offset="1" stop-color="white" stop-opacity="0"/>
</linearGradient>
<linearGradient id="paint57_linear_0_1" x1="50.598" y1="0.000126302" x2="50.598" y2="72.2988" gradientUnits="userSpaceOnUse">
<stop stop-color="#4322D5"/>
<stop offset="1" stop-color="white" stop-opacity="0"/>
</linearGradient>
<linearGradient id="paint58_linear_0_1" x1="50.598" y1="0.000126302" x2="50.598" y2="72.2988" gradientUnits="userSpaceOnUse">
<stop stop-color="#4322D5"/>
<stop offset="1" stop-color="white" stop-opacity="0"/>
</linearGradient>
<linearGradient id="paint59_linear_0_1" x1="-33.0931" y1="289.299" x2="-33.0931" y2="361.597" gradientUnits="userSpaceOnUse">
<stop stop-color="#4322D5"/>
<stop offset="1" stop-color="white" stop-opacity="0"/>
</linearGradient>
<linearGradient id="paint60_linear_0_1" x1="-33.0931" y1="144.597" x2="-33.0931" y2="216.896" gradientUnits="userSpaceOnUse">
<stop stop-color="#4322D5"/>
<stop offset="1" stop-color="white" stop-opacity="0"/>
</linearGradient>
<linearGradient id="paint61_linear_0_1" x1="-33.0932" y1="0.000126302" x2="-33.0932" y2="72.2988" gradientUnits="userSpaceOnUse">
<stop stop-color="#4322D5"/>
<stop offset="1" stop-color="white" stop-opacity="0"/>
</linearGradient>
<clipPath id="clip0_0_1">
<rect width="393" height="572" fill="white" transform="translate(0 -94)"/>
</clipPath>
</defs>
</svg>
