<svg preserveAspectRatio="none" overflow="visible" style="display: block;" width="62.9996" height="52.0009" viewBox="0 0 62.9996 52.0009" fill="none" xmlns="http://www.w3.org/2000/svg">
<g id="Group">
<path id="Vector" d="M18.7773 34.8785L24.3815 34.9128L24.3869 45.0547L18.7445 45.052C15.3809 45.0506 12.2126 43.9684 9.36682 42.2055C3.66973 38.6756 0.118949 32.5869 0.00282117 25.8173C-0.178885 15.2152 8.62633 6.12387 18.9931 6.10058L24.3897 6.08825L24.3801 16.1863L18.7499 16.2261C12.9927 16.511 8.87771 21.7792 10.0513 27.4214C10.9175 31.5842 14.4396 34.7196 18.7773 34.8785Z" fill="url(#paint0_linear_0_28)"/>
<path id="Vector_2" d="M33.8356 43.9315C33.8192 44.4794 33.4012 45.0574 32.8438 45.0561H26.1753L26.1794 34.9347L32.7659 34.9114C33.3643 34.9087 33.7878 35.4429 33.8329 36.0045L33.8356 43.9301V43.9315Z" fill="url(#paint1_linear_0_28)"/>
<path id="Vector_3" d="M33.8397 15.0467C33.8042 15.6727 33.3629 16.1891 32.7645 16.1877L26.1794 16.174L26.1821 6.10469L32.5254 6.07455C33.2386 6.07181 33.8233 6.5033 33.8329 7.24298L33.8384 15.0467H33.8397Z" fill="url(#paint2_linear_0_28)"/>
<path id="Vector_4" d="M62.1325 15.1604L51.5116 15.1563C50.8886 15.1563 50.7916 14.6864 50.7493 14.207C50.5621 12.0756 51.457 10.2072 53.3 9.14426C55.0447 8.13883 58.0804 8.11143 59.8196 8.84153C62.0082 9.75792 63.1804 11.851 62.9769 14.2029C62.9304 14.7344 62.7856 15.1604 62.1325 15.1604Z" fill="url(#paint3_linear_0_28)"/>
<path id="Vector_5" d="M62.1407 34.0635L51.5116 34.0608C50.8791 34.0608 50.7875 33.58 50.7479 33.0923C50.5717 30.8746 51.6401 28.9199 53.6402 27.9638C55.4176 27.1145 58.7143 27.1214 60.4876 28.1707C62.2241 29.198 63.1804 31.0513 62.9509 33.0868C63.0698 33.6389 62.7036 34.0635 62.1407 34.0635Z" fill="url(#paint4_linear_0_28)"/>
<path id="Vector_6" d="M62.1954 51.9899L51.5034 52.0009C50.9624 52.0009 50.7944 51.6078 50.752 51.1612C50.5539 49.0846 51.5595 47.2861 53.3861 46.319C54.4435 45.7588 55.6089 45.6547 56.818 45.6382C58.1951 45.619 59.4835 45.7615 60.6516 46.4765C62.2569 47.46 63.1121 49.123 62.9837 51.0283C62.9536 51.468 62.8607 51.9913 62.1954 51.9927V51.9899Z" fill="url(#paint5_linear_0_28)"/>
<path id="Vector_7" d="M60.366 3.72399C60.3182 5.90196 58.4465 7.43202 56.4928 7.19504C54.3793 6.93889 52.983 4.9705 53.4407 2.86513C53.8369 1.04468 55.4805 -0.178542 57.2429 0.0214477C59.0299 0.224177 60.4084 1.76108 60.3647 3.72262L60.366 3.72399Z" fill="url(#paint6_linear_0_28)"/>
<path id="Vector_8" d="M57.8044 44.4191C56.3002 44.8506 54.8097 44.1767 54.0036 43.0548C53.1156 41.8179 53.1784 40.1728 54.0118 38.9715C54.8452 37.7701 56.3999 37.1387 57.8973 37.6167C59.4001 38.0962 60.3455 39.4646 60.3647 40.9576C60.3838 42.5343 59.4493 43.9479 57.8044 44.4191Z" fill="url(#paint7_linear_0_28)"/>
<path id="Vector_9" d="M55.5187 25.9584C53.8547 25.279 53.08 23.5421 53.453 21.8724C53.7959 20.3437 55.2373 19.0999 56.9328 19.1656C59.1569 19.2519 60.6912 21.2491 60.3018 23.349C59.9125 25.4489 57.6746 26.8392 55.5174 25.9584H55.5187Z" fill="url(#paint8_linear_0_28)"/>
<path id="Vector_10" d="M38.3072 22.4079C37.702 22.5874 37.2703 22.0545 37.2074 21.6244C37.1418 21.1861 37.3673 20.645 37.8564 20.5026L42.5192 19.1478C43.0165 19.004 43.4975 19.3971 43.6218 19.8273C43.716 20.1519 43.5617 20.8505 43.1149 20.9834L38.3072 22.4093V22.4079Z" fill="url(#paint9_linear_0_28)"/>
<path id="Vector_11" d="M42.7939 28.8638C43.4551 29.0747 43.7926 29.5898 43.6013 30.1514C43.395 30.7582 42.8321 30.9513 42.2255 30.7527L37.9957 29.3733C37.4342 29.1898 37.1145 28.7651 37.202 28.2432C37.2949 27.6912 37.7881 27.2707 38.3769 27.4584L42.7925 28.8624L42.7939 28.8638Z" fill="url(#paint10_linear_0_28)"/>
</g>
<defs>
<linearGradient id="paint0_linear_0_28" x1="1.36568" y1="6.08825" x2="26.2534" y2="8.27341" gradientUnits="userSpaceOnUse">
<stop stop-color="#4322D5"/>
<stop offset="1" stop-color="#372294"/>
</linearGradient>
<linearGradient id="paint1_linear_0_28" x1="26.6042" y1="34.9114" x2="34.3939" y2="35.7365" gradientUnits="userSpaceOnUse">
<stop stop-color="#4322D5"/>
<stop offset="1" stop-color="#372294"/>
</linearGradient>
<linearGradient id="paint2_linear_0_28" x1="26.6083" y1="6.07454" x2="34.3974" y2="6.90216" gradientUnits="userSpaceOnUse">
<stop stop-color="#4322D5"/>
<stop offset="1" stop-color="#372294"/>
</linearGradient>
<linearGradient id="paint3_linear_0_28" x1="51.4122" y1="8.33616" x2="63.2787" y2="11.3302" gradientUnits="userSpaceOnUse">
<stop stop-color="#4322D5"/>
<stop offset="1" stop-color="#372294"/>
</linearGradient>
<linearGradient id="paint4_linear_0_28" x1="51.4153" y1="27.353" x2="63.2414" y2="30.3827" gradientUnits="userSpaceOnUse">
<stop stop-color="#4322D5"/>
<stop offset="1" stop-color="#372294"/>
</linearGradient>
<linearGradient id="paint5_linear_0_28" x1="51.4143" y1="45.6366" x2="63.1707" y2="48.8158" gradientUnits="userSpaceOnUse">
<stop stop-color="#4322D5"/>
<stop offset="1" stop-color="#372294"/>
</linearGradient>
<linearGradient id="paint6_linear_0_28" x1="53.7463" y1="7.44986e-05" x2="60.8256" y2="0.964678" gradientUnits="userSpaceOnUse">
<stop stop-color="#4322D5"/>
<stop offset="1" stop-color="#372294"/>
</linearGradient>
<linearGradient id="paint7_linear_0_28" x1="53.754" y1="37.4564" x2="60.8197" y2="38.4348" gradientUnits="userSpaceOnUse">
<stop stop-color="#4322D5"/>
<stop offset="1" stop-color="#372294"/>
</linearGradient>
<linearGradient id="paint8_linear_0_28" x1="53.753" y1="19.1632" x2="60.8159" y2="20.1451" gradientUnits="userSpaceOnUse">
<stop stop-color="#4322D5"/>
<stop offset="1" stop-color="#372294"/>
</linearGradient>
<linearGradient id="paint9_linear_0_28" x1="37.5576" y1="19.1176" x2="43.7347" y2="20.7985" gradientUnits="userSpaceOnUse">
<stop stop-color="#4322D5"/>
<stop offset="1" stop-color="#372294"/>
</linearGradient>
<linearGradient id="paint10_linear_0_28" x1="37.5498" y1="27.413" x2="43.7612" y2="29.063" gradientUnits="userSpaceOnUse">
<stop stop-color="#4322D5"/>
<stop offset="1" stop-color="#372294"/>
</linearGradient>
</defs>
</svg>
